<?xml version="1.0" encoding="utf-8"?>
<!-- Generator: Adobe Illustrator 16.0.0, SVG Export Plug-In . SVG Version: 6.00 Build 0)  -->
<!DOCTYPE svg PUBLIC "-//W3C//DTD SVG 1.0//EN" "http://www.w3.org/TR/2001/REC-SVG-20010904/DTD/svg10.dtd">
<svg version="1.0" id="Capa_1" xmlns="http://www.w3.org/2000/svg" xmlns:xlink="http://www.w3.org/1999/xlink" x="0px" y="0px"
	 width="256.221px" height="61.254px" viewBox="0 0 256.221 61.254" enable-background="new 0 0 256.221 61.254"
	 xml:space="preserve">
<g>
	<path fill="none" stroke="#D0D1D1" stroke-width="0.16" stroke-miterlimit="10" d="M0.08,0.08v51.174
		c0,5.467,4.119,9.92,9.181,9.92h30.448c5.073,0,9.184-4.453,9.184-9.92V0.08H0.08z"/>
	<path fill="#1C2A47" d="M1.725,1.745v49.427c0,4.758,3.264,8.354,7.62,8.354h30.28c4.355,0,7.615-3.597,7.615-8.354V1.745H1.725z"
		/>
	<path fill="#FFFFFF" d="M9.344,58.449c-3.601,0-6.543-3.265-6.543-7.277V2.81h43.364v48.362c0,4.013-2.938,7.277-6.54,7.277H9.344z
		"/>
	<path fill="#1C2A47" d="M9.045,37.661v-0.022c0-0.448-0.088-0.75-0.234-1.015c-0.08-0.207-0.155-0.387-0.155-0.477
		c0-0.21,0.172-0.282,0.354-0.352v-0.221H7.164v0.2c0.687,0.272,1.612,0.942,1.612,1.84c0,0.219-0.042,0.41-0.107,0.575
		c-0.062,0.075-0.095,0.145-0.15,0.228c-0.438,0.503-1.322,0.666-2.281,0.666c-1.343,0-2.562-0.302-2.562-1.469v-0.093
		c0.064-0.851,0.954-1.479,1.621-1.747v-0.2H3.45v0.221c0.194,0.069,0.354,0.142,0.354,0.352c0,0.079-0.05,0.218-0.129,0.399
		c-0.162,0.259-0.263,0.582-0.263,1.092v0.022v0.026c0,0.196,0.022,0.396,0.065,0.593c0.262,1.43,1.416,2.202,2.719,2.202h0.04
		h0.026c1.301,0,2.454-0.772,2.72-2.202c0.04-0.197,0.062-0.396,0.062-0.593V37.661z"/>
	<path fill="#1C2A47" d="M8.886,29.833v4.578H8.707c-0.072-0.437-0.1-0.67-0.578-0.67H4.296c-0.522,0-0.542,0.32-0.556,0.67H3.547
		v-2.762H3.74c0.014,0.563,0.026,0.81,0.729,0.81h3.734c0.38,0,0.452-0.18,0.452-0.711c0-1.205-0.667-1.634-1.562-2.005v-0.229
		L8.886,29.833z"/>
	<path fill="#1C2A47" d="M3.74,23.482c0.056,0.441,0.146,0.626,0.673,0.626h2.519c0.477,0,1.18,0.112,1.529,0.431
		c0.424,0.399,0.585,1.093,0.585,1.566c0,0.353-0.046,1.095-0.504,1.607C8.244,28.049,7.96,28.26,7.104,28.26H4.47
		c-0.674,0-0.69,0.213-0.729,0.648H3.547v-2.687H3.74C3.755,26.75,3.768,26.99,4.47,26.99h2.634c0.462,0,1.55,0,1.55-1.142
		c0-1.383-1.212-1.4-1.722-1.4H4.518c-0.477,0-0.75,0.091-0.777,0.768H3.547v-1.733H3.74z"/>
	<path fill="#1C2A47" d="M8.886,22.772v-2.547c-0.022-1.68-0.805-2.23-1.462-2.23c-0.915,0-1.307,0.83-1.421,1.495H5.99
		c-0.1-0.321-0.309-1.227-1.187-1.227c-1.229,0-1.257,1.614-1.257,2.069v2.439H3.74c0.014-0.362,0.034-0.7,0.556-0.7H8.13
		c0.478,0,0.525,0.258,0.577,0.7H8.886z M4.168,20.806c-0.184-0.005-0.394-0.01-0.394-0.425c0-0.638,0.468-0.809,1.021-0.809
		c0.815,0,1.145,0.171,1.145,1.233H4.168z M6.174,20.806v-0.236c0.023-0.515,0.15-1.208,1.267-1.208
		c0.492,0,1.194,0.097,1.194,0.977c0,0.321-0.116,0.468-0.476,0.468H6.174z"/>
	<path fill="#1C2A47" d="M39.999,22.675V18.1h0.203c0.057,0.446,0.08,0.673,0.565,0.673h3.833c0.523,0,0.54-0.307,0.563-0.673h0.186
		v2.767h-0.186c-0.022-0.556-0.036-0.812-0.736-0.812h-3.738c-0.382,0-0.436,0.185-0.436,0.713c0,1.194,0.646,1.644,1.556,2.005
		v0.231L39.999,22.675z"/>
	<path fill="#1C2A47" d="M39.999,26.519v-2.756h0.203c0.038,0.422,0.064,0.725,0.565,0.725h3.833c0.523,0,0.54-0.367,0.563-0.725
		h0.186v2.756h-0.186c-0.017-0.376-0.022-0.75-0.563-0.75h-3.833c-0.509,0-0.53,0.316-0.565,0.75H39.999z"/>
	<path fill="#1C2A47" d="M39.999,34.442v-2.623h0.203c0.051,0.475,0.064,0.69,0.586,0.69h3.998l-4.787-1.988v-0.225l4.673-1.972
		v-0.019h-3.681c-0.561,0-0.751,0.16-0.789,0.804h-0.203v-1.847h0.203c0.057,0.612,0.18,0.718,0.637,0.718h3.762
		c0.413,0,0.523-0.141,0.563-0.703h0.186v2.007l-3.731,1.58l3.731,1.584v1.993h-0.186c-0.036-0.44-0.05-0.697-0.736-0.697h-3.494
		c-0.635,0-0.666,0.185-0.73,0.697H39.999z"/>
	<path fill="#1C2A47" d="M40.203,40.388c-0.014-0.383,0.249-0.514,1.098-0.867l4.171-1.771v-0.212l-4.334-1.763
		c-0.601-0.236-0.873-0.345-0.935-0.788h-0.204v1.622h0.204c0.013-0.271,0.038-0.646,0.349-0.646c0.112,0,0.447,0.127,1.009,0.339
		v1.78c-0.257,0.122-0.841,0.367-1.048,0.367c-0.259,0-0.271-0.146-0.31-0.622h-0.204v2.56H40.203z M41.876,36.425l1.926,0.732
		l-1.926,0.815V36.425z"/>
	<path fill="#1C2A47" d="M20.647,57.398h-2.675v-0.186c0.811,0.005,0.849-0.259,0.849-0.713v-2.722c0-0.18,0-0.501-0.288-0.501
		c-0.103,0-0.345,0.086-0.601,0.18v-0.187l1.823-0.774h0.123v4.051c0,0.488,0.056,0.666,0.769,0.666V57.398z"/>
	<path fill="#1C2A47" d="M21.058,57.485c2.151-0.219,3.161-1.585,3.161-2.876c0-1.704-0.996-2.113-1.637-2.113
		c-1.297,0-1.564,1.213-1.564,1.594c0,1.226,0.804,1.497,1.294,1.497c0.129,0,0.246-0.012,0.345-0.03
		c0.108-0.014,0.202-0.048,0.322-0.112c-0.364,1.354-1.203,1.72-1.921,1.863V57.485z M22.105,53.697c0-0.562,0-1.009,0.439-1.009
		c0.451,0,0.558,0.447,0.558,1.847c0,0.168-0.045,0.519-0.068,0.628c-0.011,0.069-0.203,0.107-0.323,0.107
		C22.224,55.271,22.105,54.72,22.105,53.697"/>
	<path fill="#1C2A47" d="M24.823,55.02c0,1.445,0.697,2.465,1.616,2.465c1.013,0,1.619-1.181,1.619-2.465
		c0-1.693-0.853-2.523-1.598-2.523C25.735,52.496,24.823,53.236,24.823,55.02 M26.933,55.807c0,0.469-0.07,0.928-0.108,1.085
		c-0.03,0.144-0.102,0.389-0.363,0.389c-0.378,0-0.501-0.456-0.501-1.474V54.17c0-0.571,0-1.474,0.479-1.474
		c0.337,0,0.493,0.416,0.493,1.474V55.807z"/>
	<path fill="#1C2A47" d="M30.947,57.398h-2.692v-0.186c0.835,0.005,0.861-0.259,0.861-0.713v-2.722c0-0.18,0-0.501-0.283-0.501
		c-0.095,0-0.346,0.086-0.581,0.18v-0.187l1.796-0.774h0.125v4.051c0,0.488,0.065,0.666,0.774,0.666V57.398z"/>
	<path fill="#1C2A47" d="M11.887,8.077c-0.364,0.025-0.481-0.236-0.811-1.04l-1.69-3.969H9.174L7.497,7.201
		C7.272,7.765,7.164,8.022,6.763,8.077v0.198h1.534V8.077C8.032,8.063,7.669,8.056,7.669,7.758c0-0.125,0.122-0.427,0.334-0.966
		h1.694c0.114,0.245,0.35,0.8,0.35,1.004c0,0.24-0.142,0.26-0.605,0.281v0.198h2.445V8.077z M8.111,6.491l0.716-1.83l0.757,1.83
		H8.111z"/>
	<path fill="#1C2A47" d="M16.902,8.275h-4.375V8.077c0.435-0.047,0.665-0.075,0.665-0.528v-3.65c0-0.497-0.309-0.511-0.665-0.534
		V3.176h2.644v0.188c-0.524,0.023-0.756,0.035-0.756,0.685v3.579c0,0.349,0.156,0.408,0.67,0.408c1.137,0,1.564-0.626,1.905-1.474
		h0.228L16.902,8.275z"/>
	<path fill="#1C2A47" d="M20.261,8.275h-2.629V8.077c0.397-0.021,0.696-0.068,0.696-0.528v-3.65c0-0.497-0.355-0.511-0.696-0.534
		V3.176h2.629v0.188c-0.345,0.009-0.717,0.023-0.717,0.534v3.65c0,0.481,0.307,0.507,0.717,0.528V8.275z"/>
	<path fill="#1C2A47" d="M25.922,8.077c-0.366,0.025-0.486-0.236-0.817-1.04l-1.684-3.969h-0.212L21.53,7.201
		c-0.224,0.563-0.331,0.821-0.741,0.876v0.198h1.532V8.077c-0.264-0.014-0.626-0.021-0.626-0.319c0-0.125,0.136-0.427,0.339-0.966
		h1.699c0.099,0.245,0.338,0.8,0.338,1.004c0,0.24-0.123,0.26-0.603,0.281v0.198h2.453V8.077z M22.146,6.491l0.712-1.83l0.757,1.83
		H22.146z"/>
	<path fill="#1C2A47" d="M26.286,8.077c0.446-0.046,0.67-0.099,0.67-0.6V3.906c-0.431-0.519-0.559-0.543-0.653-0.543V3.176h1.587
		l2.621,3.222h0.021V4.116c0-0.459-0.096-0.714-0.708-0.753V3.176h1.622v0.188c-0.549,0.076-0.595,0.237-0.595,0.613v4.43h-0.203
		L27.29,4.322h-0.014v3.02c0,0.542,0.159,0.679,0.723,0.735v0.198h-1.713V8.077z"/>
	<path fill="#1C2A47" d="M36.347,8.275h-4.375V8.143l2.87-4.698c-1.257,0.031-1.257,0.031-1.518,0.108
		c-0.559,0.169-0.778,0.784-0.911,1.177H32.21l0.146-1.554h3.958v0.117l-2.859,4.709c1.681,0.028,2.5,0.034,2.892-1.55h0.19
		L36.347,8.275z"/>
	<path fill="#1C2A47" d="M42.136,8.077c-0.359,0.025-0.479-0.236-0.821-1.04l-1.689-3.969h-0.206l-1.666,4.133
		c-0.229,0.563-0.334,0.821-0.743,0.876v0.198h1.532V8.077c-0.256-0.014-0.617-0.021-0.617-0.319c0-0.125,0.111-0.427,0.332-0.966
		h1.7c0.099,0.245,0.339,0.8,0.339,1.004c0,0.24-0.126,0.26-0.598,0.281v0.198h2.438V8.077z M38.365,6.491l0.719-1.83l0.759,1.83
		H38.365z"/>
	<path fill="#1C2A47" d="M16.278,15.257c-0.991,0-1.666-0.287-1.666-0.555c0-0.261,0.675-0.549,1.666-0.549
		c0.987,0,1.675,0.288,1.675,0.549C17.953,14.97,17.266,15.257,16.278,15.257 M18.822,13.259c-0.114,0-0.223,0.098-0.223,0.22
		c0,0.02,0.009,0.038,0.009,0.058l-0.783,0.354l-0.008-0.02v-1.085c0.111-0.005,0.202-0.099,0.202-0.206
		c0-0.139-0.091-0.224-0.213-0.224c-0.123,0-0.212,0.085-0.212,0.224c0,0.031,0.009,0.09,0.037,0.125l-0.807,0.652l-0.475-1.312
		c0.088-0.039,0.148-0.114,0.148-0.208c0-0.112-0.094-0.218-0.221-0.218c-0.117,0-0.217,0.105-0.217,0.218
		c0,0.094,0.062,0.169,0.146,0.208l-0.475,1.312l-0.795-0.639c0.027-0.046,0.057-0.089,0.057-0.139c0-0.139-0.104-0.224-0.23-0.224
		c-0.118,0-0.212,0.085-0.212,0.224c0,0.098,0.091,0.195,0.188,0.206l0.008,1.085l-0.021,0.02l-0.763-0.354v-0.058
		c0-0.122-0.1-0.22-0.225-0.22c-0.118,0-0.213,0.098-0.213,0.22c0,0.125,0.095,0.215,0.213,0.215c0.044,0,0.059-0.007,0.089-0.021
		l0.394,1.029c0.165,0.454,1.023,0.81,2.057,0.819c1.031-0.01,1.895-0.365,2.06-0.819l0.399-1.029
		c0.018,0.014,0.046,0.021,0.085,0.021c0.115,0,0.216-0.09,0.216-0.215C19.038,13.356,18.938,13.259,18.822,13.259"/>
	<path fill="#1C2A47" d="M32.692,15.257c-0.992,0-1.694-0.287-1.694-0.555c0-0.261,0.702-0.549,1.694-0.549
		c0.981,0,1.681,0.288,1.681,0.549C34.373,14.97,33.674,15.257,32.692,15.257 M35.231,13.259c-0.118,0-0.21,0.098-0.21,0.22v0.058
		l-0.779,0.354l-0.032-0.02l0.021-1.085c0.108-0.005,0.201-0.099,0.201-0.206c0-0.139-0.093-0.224-0.226-0.224
		c-0.109,0-0.211,0.085-0.211,0.224c0,0.031,0.018,0.09,0.05,0.125l-0.806,0.652l-0.472-1.312c0.074-0.039,0.143-0.114,0.143-0.208
		c0-0.112-0.102-0.218-0.218-0.218c-0.119,0-0.227,0.105-0.227,0.218c0,0.094,0.064,0.169,0.144,0.208l-0.47,1.312l-0.801-0.639
		c0.022-0.046,0.057-0.089,0.057-0.139c0-0.139-0.105-0.224-0.219-0.224c-0.123,0-0.223,0.085-0.223,0.224
		c0,0.098,0.092,0.195,0.194,0.206l0.003,1.085l-0.007,0.02l-0.79-0.354c0.007-0.02,0.016-0.038,0.016-0.058
		c0-0.122-0.1-0.22-0.219-0.22c-0.125,0-0.219,0.098-0.219,0.22c0,0.125,0.094,0.215,0.219,0.215c0.032,0,0.064-0.007,0.086-0.021
		l0.391,1.029c0.172,0.454,1.03,0.81,2.064,0.819c1.031-0.01,1.881-0.365,2.061-0.819l0.384-1.029
		c0.036,0.014,0.06,0.021,0.095,0.021c0.118,0,0.209-0.09,0.209-0.215C35.44,13.356,35.35,13.259,35.231,13.259"/>
	<path fill="#1C2A47" d="M24.507,19.678c-0.986,0-1.677-0.29-1.677-0.557c0-0.25,0.69-0.552,1.677-0.552
		c0.994,0,1.682,0.302,1.682,0.552C26.188,19.388,25.501,19.678,24.507,19.678 M27.045,17.683c-0.112,0-0.223,0.1-0.223,0.222
		c0,0.018,0.02,0.032,0.02,0.061l-0.778,0.345l-0.019-0.016v-1.087c0.122,0,0.207-0.087,0.207-0.214
		c0-0.123-0.093-0.222-0.222-0.222c-0.119,0-0.207,0.099-0.207,0.222c0,0.052,0.023,0.098,0.038,0.133l-0.803,0.656l-0.473-1.313
		c0.081-0.027,0.141-0.106,0.141-0.207c0-0.113-0.093-0.206-0.22-0.206c-0.123,0-0.212,0.093-0.212,0.206
		c0,0.101,0.061,0.18,0.146,0.207l-0.469,1.313l-0.812-0.641c0.033-0.051,0.048-0.097,0.048-0.148c0-0.123-0.099-0.222-0.213-0.222
		c-0.118,0-0.221,0.099-0.221,0.222c0,0.119,0.083,0.211,0.202,0.214v1.087l-0.013,0.016l-0.79-0.345
		c0.011-0.028,0.02-0.043,0.02-0.07c0-0.112-0.103-0.212-0.225-0.212c-0.107,0-0.215,0.1-0.215,0.212
		c0,0.129,0.107,0.219,0.215,0.219c0.035,0,0.061-0.01,0.088-0.016l0.396,1.04c0.171,0.446,1.03,0.809,2.054,0.809
		c1.043,0,1.89-0.362,2.072-0.809l0.382-1.04c0.032,0.006,0.06,0.016,0.084,0.016c0.128,0,0.221-0.09,0.221-0.209
		C27.266,17.782,27.173,17.683,27.045,17.683"/>
	<path fill="#1C2A47" d="M38.237,20.494H10.735V9.737h27.502V20.494z M38.237,47.499c0,1.632-1.329,2.952-2.955,2.952h-0.714V21.564
		h3.669V47.499z M22.473,50.451h-4.042V21.564h4.042V50.451z M30.534,50.451h-4.036V21.564h4.036V50.451z M10.735,47.499V21.564
		h3.667v28.887h-0.704C12.056,50.451,10.735,49.131,10.735,47.499 M9.655,8.667v38.832c0,2.229,1.807,4.033,4.043,4.033h21.584
		c2.224,0,4.029-1.805,4.029-4.033V8.667H9.655z"/>
	<polygon fill="#1C2A47" points="24.508,10.804 25.063,12.502 26.85,12.502 25.407,13.554 25.96,15.257 24.508,14.211 
		23.058,15.257 23.615,13.554 22.166,12.502 23.954,12.502 	"/>
</g>
<g>
	<path fill="#1C2A47" d="M74.043,34.163h7.7l-2.593-7.719c-0.167-0.492-0.363-1.069-0.59-1.733
		c-0.226-0.663-0.448-1.383-0.667-2.159c-0.208,0.789-0.42,1.519-0.638,2.188c-0.223,0.673-0.427,1.255-0.622,1.743L74.043,34.163z
		 M92.152,44.938h-5.069c-0.568,0-1.036-0.13-1.401-0.396c-0.369-0.265-0.624-0.603-0.765-1.016l-1.665-4.915H72.533l-1.664,4.915
		c-0.128,0.36-0.379,0.688-0.753,0.977c-0.375,0.29-0.832,0.435-1.376,0.435h-5.106l10.913-28.189h6.693L92.152,44.938z"/>
	<rect x="92.695" y="15.975" fill="#1C2A47" width="5.997" height="28.964"/>
	<path fill="#1C2A47" d="M107.785,44.938h-5.998V24.875h5.998V44.938z M108.481,19.38c0,0.479-0.097,0.928-0.289,1.346
		c-0.193,0.419-0.458,0.786-0.793,1.104c-0.336,0.316-0.728,0.565-1.172,0.754c-0.445,0.187-0.918,0.28-1.422,0.28
		c-0.49,0-0.948-0.094-1.374-0.28c-0.426-0.188-0.803-0.438-1.133-0.754c-0.327-0.317-0.586-0.685-0.773-1.104
		c-0.187-0.418-0.279-0.867-0.279-1.346c0-0.488,0.093-0.946,0.279-1.372c0.188-0.426,0.446-0.8,0.773-1.122
		c0.33-0.323,0.707-0.574,1.133-0.755c0.426-0.183,0.884-0.271,1.374-0.271c0.504,0,0.977,0.088,1.422,0.271
		c0.444,0.181,0.836,0.432,1.172,0.755c0.335,0.322,0.6,0.696,0.793,1.122C108.385,18.434,108.481,18.892,108.481,19.38"/>
	<path fill="#1C2A47" d="M117.653,41.283c0.773,0,1.45-0.137,2.03-0.406c0.581-0.271,1.168-0.709,1.761-1.316v-2.746
		c-1.2,0-2.186,0.078-2.961,0.232c-0.772,0.157-1.385,0.351-1.836,0.586c-0.454,0.233-0.766,0.501-0.939,0.8
		c-0.175,0.3-0.262,0.624-0.262,0.978c0,0.689,0.188,1.174,0.562,1.452C116.382,41.142,116.93,41.283,117.653,41.283
		 M124.541,44.938c-0.569,0-0.997-0.077-1.289-0.229c-0.29-0.156-0.529-0.479-0.725-0.968l-0.424-1.104
		c-0.505,0.426-0.988,0.801-1.452,1.122c-0.464,0.324-0.945,0.599-1.441,0.821c-0.498,0.227-1.026,0.396-1.588,0.505
		c-0.561,0.108-1.183,0.164-1.866,0.164c-0.917,0-1.746-0.12-2.495-0.359c-0.748-0.238-1.385-0.592-1.905-1.058
		c-0.524-0.467-0.927-1.045-1.21-1.737s-0.426-1.492-0.426-2.396c0-0.712,0.18-1.444,0.541-2.195c0.361-0.75,0.987-1.431,1.877-2.05
		c0.891-0.612,2.091-1.126,3.599-1.541c1.509-0.413,3.413-0.62,5.708-0.62v-0.859c0-1.186-0.241-2.041-0.726-2.568
		c-0.485-0.526-1.17-0.79-2.06-0.79c-0.71,0-1.291,0.076-1.741,0.23c-0.452,0.158-0.855,0.33-1.21,0.524
		c-0.354,0.191-0.699,0.367-1.036,0.521c-0.335,0.154-0.735,0.233-1.198,0.233c-0.414,0-0.764-0.101-1.055-0.3
		c-0.292-0.2-0.52-0.448-0.688-0.745l-1.084-1.876c1.213-1.073,2.558-1.869,4.035-2.39c1.478-0.524,3.061-0.786,4.749-0.786
		c1.214,0,2.307,0.198,3.28,0.591c0.973,0.396,1.8,0.943,2.476,1.644c0.678,0.705,1.196,1.541,1.56,2.507
		c0.359,0.968,0.541,2.024,0.541,3.173v12.537H124.541z"/>
	<path fill="#1C2A47" d="M129.609,44.938V24.875h3.714c0.375,0,0.688,0.085,0.939,0.253c0.251,0.167,0.426,0.42,0.531,0.755
		l0.35,1.16c0.385-0.36,0.785-0.698,1.198-1.008c0.412-0.309,0.854-0.57,1.325-0.783c0.471-0.211,0.98-0.379,1.529-0.503
		c0.547-0.122,1.144-0.183,1.79-0.183c1.097,0,2.064,0.189,2.91,0.57c0.845,0.381,1.558,0.91,2.14,1.585
		c0.58,0.679,1.019,1.484,1.316,2.421c0.295,0.935,0.444,1.949,0.444,3.047v12.749h-5.999V32.189c0-0.981-0.227-1.744-0.678-2.293
		s-1.115-0.822-1.993-0.822c-0.657,0-1.276,0.142-1.857,0.426c-0.579,0.285-1.135,0.663-1.662,1.142v14.297H129.609z"/>
	<path fill="#1C2A47" d="M165.092,27.274c0,0.413-0.075,0.806-0.231,1.182c-0.155,0.373-0.336,0.694-0.541,0.967L155.94,40.49h8.957
		v4.45h-15.863v-2.439c0-0.245,0.066-0.551,0.202-0.918c0.137-0.367,0.326-0.719,0.571-1.056l8.455-11.202h-8.688v-4.449h15.517
		V27.274z"/>
	<path fill="#1C2A47" d="M173.605,41.283c0.774,0,1.45-0.137,2.032-0.406c0.58-0.271,1.166-0.709,1.76-1.316v-2.746
		c-1.2,0-2.188,0.078-2.961,0.232c-0.773,0.157-1.385,0.351-1.837,0.586c-0.452,0.233-0.764,0.501-0.939,0.8
		c-0.173,0.3-0.261,0.624-0.261,0.978c0,0.689,0.188,1.174,0.562,1.452C172.336,41.142,172.883,41.283,173.605,41.283
		 M180.493,44.938c-0.567,0-0.996-0.077-1.287-0.229c-0.29-0.156-0.529-0.479-0.725-0.968l-0.426-1.104
		c-0.504,0.426-0.988,0.801-1.451,1.122c-0.464,0.324-0.946,0.599-1.442,0.821c-0.497,0.227-1.025,0.396-1.585,0.505
		c-0.563,0.108-1.184,0.164-1.869,0.164c-0.915,0-1.746-0.12-2.495-0.359c-0.749-0.238-1.384-0.592-1.904-1.058
		c-0.524-0.467-0.928-1.045-1.209-1.737c-0.284-0.692-0.427-1.492-0.427-2.396c0-0.712,0.181-1.444,0.542-2.195
		c0.36-0.75,0.987-1.431,1.877-2.05c0.89-0.612,2.09-1.126,3.599-1.541c1.51-0.413,3.411-0.62,5.707-0.62v-0.859
		c0-1.186-0.242-2.041-0.726-2.568c-0.483-0.526-1.171-0.79-2.061-0.79c-0.709,0-1.29,0.076-1.741,0.23
		c-0.451,0.158-0.855,0.33-1.21,0.524c-0.355,0.191-0.699,0.367-1.036,0.521c-0.333,0.154-0.732,0.233-1.198,0.233
		c-0.413,0-0.764-0.101-1.054-0.3c-0.292-0.2-0.52-0.448-0.687-0.745l-1.084-1.876c1.212-1.073,2.557-1.869,4.034-2.39
		c1.477-0.524,3.061-0.786,4.751-0.786c1.211,0,2.304,0.198,3.278,0.591c0.973,0.396,1.799,0.943,2.476,1.644
		c0.679,0.705,1.196,1.541,1.558,2.507c0.362,0.968,0.543,2.024,0.543,3.173v12.537H180.493z"/>
	<polygon fill="#1C2A47" points="190.359,41.786 202.355,41.786 202.355,44.938 186.606,44.938 186.606,17.215 190.359,17.215 	"/>
	<path fill="#1C2A47" d="M207.852,44.938h-3.445V25.341h3.445V44.938z M208.624,19.187c0,0.337-0.068,0.65-0.202,0.938
		c-0.137,0.29-0.316,0.548-0.543,0.773c-0.226,0.228-0.487,0.404-0.784,0.534c-0.296,0.128-0.613,0.192-0.947,0.192
		c-0.335,0-0.647-0.064-0.938-0.192c-0.29-0.13-0.548-0.307-0.774-0.534c-0.227-0.226-0.402-0.483-0.531-0.773
		c-0.129-0.288-0.193-0.602-0.193-0.938c0-0.334,0.064-0.653,0.193-0.957c0.129-0.303,0.305-0.566,0.531-0.795
		c0.227-0.224,0.484-0.401,0.774-0.531c0.291-0.129,0.604-0.191,0.938-0.191c0.334,0,0.651,0.063,0.947,0.191
		c0.297,0.13,0.559,0.308,0.784,0.531c0.227,0.229,0.406,0.492,0.543,0.795C208.556,18.533,208.624,18.853,208.624,19.187"/>
	<path fill="#1C2A47" d="M211.991,44.938V25.341h2.051c0.489,0,0.797,0.238,0.928,0.716l0.251,2.011
		c0.724-0.891,1.534-1.619,2.43-2.185c0.896-0.569,1.938-0.852,3.124-0.852c1.328,0,2.403,0.367,3.221,1.102
		c0.821,0.734,1.41,1.728,1.771,2.98c0.271-0.709,0.629-1.322,1.074-1.839c0.444-0.514,0.945-0.941,1.5-1.276
		c0.554-0.336,1.146-0.58,1.769-0.735c0.626-0.154,1.264-0.231,1.908-0.231c1.03,0,1.951,0.163,2.757,0.493
		c0.805,0.328,1.49,0.809,2.05,1.441c0.563,0.632,0.99,1.408,1.287,2.331c0.296,0.923,0.445,1.978,0.445,3.163v12.479h-3.444V32.46
		c0-1.537-0.336-2.699-1.006-3.492c-0.672-0.793-1.644-1.19-2.922-1.19c-0.567,0-1.106,0.102-1.615,0.299
		c-0.509,0.202-0.956,0.494-1.345,0.881c-0.387,0.388-0.692,0.876-0.921,1.461c-0.224,0.588-0.338,1.269-0.338,2.042v12.479h-3.442
		V32.46c0-1.574-0.317-2.748-0.946-3.521c-0.633-0.775-1.557-1.161-2.769-1.161c-0.852,0-1.642,0.229-2.37,0.688
		c-0.729,0.459-1.396,1.08-2.004,1.868v14.605H211.991z"/>
	<path fill="#1C2A47" d="M247.282,42.832c0.606,0,1.16-0.063,1.664-0.187c0.502-0.121,0.975-0.297,1.42-0.521
		c0.446-0.227,0.872-0.499,1.278-0.821c0.405-0.322,0.804-0.689,1.188-1.103v-4.045c-1.585,0-2.934,0.102-4.041,0.302
		c-1.109,0.201-2.015,0.463-2.711,0.788c-0.695,0.325-1.204,0.707-1.52,1.149c-0.314,0.439-0.473,0.932-0.473,1.479
		c0,0.518,0.083,0.966,0.251,1.343c0.168,0.375,0.395,0.684,0.677,0.924c0.284,0.241,0.618,0.416,1.007,0.525
		C246.411,42.775,246.829,42.832,247.282,42.832 M256.221,44.938h-1.529c-0.336,0-0.606-0.052-0.813-0.153
		c-0.207-0.104-0.341-0.324-0.407-0.658l-0.387-1.818c-0.516,0.465-1.019,0.881-1.508,1.248c-0.49,0.367-1.008,0.677-1.549,0.929
		c-0.541,0.25-1.119,0.442-1.731,0.571c-0.612,0.128-1.292,0.192-2.04,0.192c-0.761,0-1.476-0.106-2.14-0.319
		c-0.663-0.214-1.24-0.535-1.731-0.961c-0.49-0.429-0.88-0.968-1.171-1.622c-0.29-0.654-0.435-1.426-0.435-2.32
		c0-0.776,0.213-1.524,0.639-2.242c0.425-0.718,1.111-1.355,2.061-1.912c0.947-0.558,2.188-1.014,3.726-1.37
		c1.534-0.354,3.41-0.532,5.628-0.532v-1.537c0-1.533-0.325-2.691-0.977-3.477c-0.65-0.786-1.616-1.179-2.893-1.179
		c-0.838,0-1.545,0.108-2.118,0.321c-0.573,0.21-1.071,0.45-1.489,0.715c-0.42,0.265-0.781,0.503-1.084,0.716
		c-0.304,0.212-0.604,0.318-0.899,0.318c-0.232,0-0.436-0.061-0.61-0.185c-0.174-0.121-0.312-0.273-0.415-0.454l-0.619-1.103
		c1.084-1.045,2.252-1.826,3.501-2.34c1.251-0.517,2.637-0.774,4.161-0.774c1.097,0,2.069,0.181,2.921,0.539
		c0.852,0.363,1.567,0.866,2.146,1.512c0.582,0.645,1.02,1.425,1.317,2.341c0.296,0.915,0.445,1.922,0.445,3.018V44.938z"/>
</g>
</svg>
